# xmcd
#
# Track frame offsets:
#	150
#	21767
#	37118
#	51151
#	74163
#	87291
#
# Disc length: 1434 seconds
#
# Revision: 0
# Processed by: cddbd v1.5.2PL0 Copyright (c) Steve Scherf et al.
# Submitted via: EasyCDDAExtractor 11.5.0.1
#
DISCID=52059806
DTITLE=12 Years Coming - Shut Up
DYEAR=2006
DGENRE=Hard Rock
TTITLE0=Shut Up
TTITLE1=Take Me Down
TTITLE2=Show Me
TTITLE3=Open Book
TTITLE4=I Want You (On Me)
TTITLE5=One Night Stand
EXTD=
EXTT0=
EXTT1=
EXTT2=
EXTT3=
EXTT4=
EXTT5=
PLAYORDER=
